<svg xmlns="http://www.w3.org/2000/svg" width="512" height="512" viewBox="0 0 512 512"><defs><style>.cls-1{fill:#f7f1c7;}.cls-2{fill:#d33207;}.cls-3{fill:#7f1d0d;}.cls-4{fill:#e4e7eb;}.cls-5{fill:#cacfd7;}.cls-6{fill:#73c3ee;}.cls-7{fill:#7eb8ff;}.cls-8{fill:#dc8744;}.cls-9{fill:#d87d3f;}.cls-10{fill:#bf713c;}.cls-11{fill:#3a556a;}.cls-12{fill:#2f4859;}.cls-13{fill:#ffe266;}.cls-14{fill:#9e7626;}.cls-15{fill:#89611a;}.cls-16{fill:#c6e7f7;}.cls-17{fill:#ff748f;}.cls-18{fill:#fccb88;}.cls-19{fill:#ffdcce;}.cls-20{fill:#b5831d;}.cls-21{fill:#f9c450;}.cls-22{fill:#423e4f;}</style></defs><title>Child Kit</title><g id="Child_Kit" data-name="Child Kit"><circle class="cls-1" cx="236" cy="252" r="181"/><path class="cls-2" d="M203.82,205.15a145.9,145.9,0,0,0,9.61,16.94l20.51,1.28L249.56,210c-4.85-32.53-19.91-53.68-19.91-53.68L242,161.92l12.82-9.51L262,135.93c-21.71-28.06-49.14-36.06-49.14-36.06l-92.44,30.87s-17.12,22.89-17.62,58.35l15.6,8.91,16-.11L140.86,186s.68,25.95,16.34,54.87l20.51,1.28,15.63-13.35a147.34,147.34,0,0,0-2.5-19.31Z"/><path class="cls-3" d="M212.82,99.87l-92.44,30.87a75.1,75.1,0,0,0-6.57,11.37A69.19,69.19,0,0,0,224.9,105,75.57,75.57,0,0,0,212.82,99.87Z"/><path class="cls-4" d="M166.4,136.31l13-4.33,24.44,73.17-13,4.33Z"/><path class="cls-5" d="M173,156.08q3.31-.75,6.6-1.85t6.38-2.48L179.38,132l-13,4.33,6.6,19.77Z"/><path class="cls-2" d="M211.05,74.33C201.79,46.61,170.87,32,142,41.61s-44.8,39.93-35.54,67.65,40.18,42.38,69.06,32.73S220.31,102.05,211.05,74.33Z"/><path class="cls-3" d="M193.23,80.17a10.14,10.14,0,0,0-12.83-6.3L130.67,90.49a10.13,10.13,0,0,0-6.47,12.74l0,.09c6,17.88,26.31,27.24,45.34,20.88s29.66-26.06,23.69-43.93Z"/><path class="cls-6" d="M134.32,197.89,130,205.81A8.66,8.66,0,0,1,120,210l-10.64-3a8.65,8.65,0,0,1-6.32-7.66c-.27-3.52-.36-6.94-.32-10.25Z"/><path class="cls-6" d="M267.43,154.23,260.71,163a8.65,8.65,0,0,1-10.44,2.63L242,161.92l19.94-26c2,2.61,4,5.41,5.9,8.39A8.64,8.64,0,0,1,267.43,154.23Z"/><path class="cls-7" d="M193.34,228.8c.25,3.62.4,6.93.48,9.6a8.67,8.67,0,0,1-5.92,8.47l-16.08,5.37a8.69,8.69,0,0,1-10.1-3.64q-2.44-3.89-4.52-7.73Z"/><path class="cls-6" d="M249.57,210c.42,2.88.77,5.85,1,8.9a8.69,8.69,0,0,1-5.89,9l-16.07,5.37a8.66,8.66,0,0,1-9.82-3.22c-1.54-2.18-3.42-4.91-5.39-8Z"/><path class="cls-4" d="M159.94,182.19a6.25,6.25,0,0,1-7.86-3.82,104.6,104.6,0,0,1-6.25-35.75,6.25,6.25,0,0,1,12.5.47,93.26,93.26,0,0,0,5.52,31.06,6.25,6.25,0,0,1-3.78,8Z"/><path class="cls-4" d="M212.11,164.76a6.24,6.24,0,0,0,4-7.78,104.56,104.56,0,0,0-16.49-32.32,6.25,6.25,0,0,0-9.7,7.88,93.52,93.52,0,0,1,14.25,28.14A6.24,6.24,0,0,0,212,164.8Z"/><path class="cls-8" d="M168.33,300.23c-38.69-5.41-73.82,17.32-83.31,85.2-4.66,33.38,27.73,30.23,66.41,35.64s69,17.32,73.64-16.06c8.21-58.75-18.06-99.37-56.74-104.78Z"/><path class="cls-9" d="M188.52,345.49s19.18,21.8,11.68,64.15c0,0,4.26-41.79-11.68-64.15Z"/><path class="cls-9" d="M136.5,338.22s-24.43,15.71-28.83,58.49c0,0,7.37-41.36,28.83-58.49Z"/><path class="cls-9" d="M218.25,383.9c-13.16-1.84-25.58,9.29-27.76,24.88a31.43,31.43,0,0,0,3.13,19,13.9,13.9,0,0,0,10.43,7.2l13.8,1.93a14,14,0,0,0,12-4.06,31.47,31.47,0,0,0,8.2-17.45c2.18-15.59-6.69-29.69-19.84-31.53Z"/><path class="cls-10" d="M219.3,399.59c-9.29-1.3-18.07,6.59-19.61,17.6A22.39,22.39,0,0,0,202,430.57a10,10,0,0,0,7.48,5.09l9.46,1.32a10.53,10.53,0,0,0,8.8-2.81,22.42,22.42,0,0,0,5.83-12.35c1.22-10.95-5-20.93-14.27-22.23Z"/><path class="cls-9" d="M97.38,367c13.15,1.84,22.05,15.95,19.87,31.54A31.51,31.51,0,0,1,109,416,13.91,13.91,0,0,1,97,420l-13.8-1.92a14,14,0,0,1-10.46-7.2,31.52,31.52,0,0,1-3.1-19C71.83,376.29,84.22,365.16,97.38,367Z"/><path class="cls-10" d="M92.06,381.8c9.29,1.3,15.57,11.3,14,22.31a22.39,22.39,0,0,1-5.89,12.23,9.92,9.92,0,0,1-8.59,2.84l-9.56-1.34a9.88,9.88,0,0,1-7.48-5.08,22.47,22.47,0,0,1-2.22-13.48c1.72-10.87,10.41-18.78,19.71-17.48Z"/><path class="cls-9" d="M201.36,322.63A50.48,50.48,0,0,1,130.63,313l-.21-.28c11.86-9,24.94-14.29,37.91-12.48S192.42,310.73,201.36,322.63Z"/><path class="cls-8" d="M238.47,235.72c-6.59-8.73-18.29-11-26.1-5.12s-8.84,17.88-2.24,26.5,18.29,11,26.1,5.15S245.06,244.48,238.47,235.72Z"/><path class="cls-10" d="M227.84,243.74a11.17,11.17,0,1,0-1.39,16.57,11.78,11.78,0,0,0,1.39-16.57Z"/><path class="cls-8" d="M118.56,219c8.74-6.59,20.61-5.59,26.51,2.23s3.6,19.62-5.12,26.1-20.61,5.61-26.51-2.2S109.83,225.57,118.56,219Z"/><path class="cls-10" d="M126.58,229.58A11.17,11.17,0,1,1,140,247.29a11.17,11.17,0,1,1-15.47-16.12A11.6,11.6,0,0,1,126.58,229.58Z"/><path class="cls-8" d="M178.53,227.26a50.58,50.58,0,1,0,43.09,57.09v0a50.55,50.55,0,0,0-43.07-57.07Z"/><path class="cls-10" d="M173.21,271.39a26.18,26.18,0,0,0-29.56,22.3c-2,14.33,9.58,16,23.92,18s26,3.63,28-10.78a26.19,26.19,0,0,0-22.31-29.56Z"/><path class="cls-11" d="M172.12,279.18a8.77,8.77,0,0,0-9.9,7.47v0c-.67,4.79,3.21,5.36,8,6s8.7,1.22,9.38-3.6a8.77,8.77,0,0,0-7.44-9.92Z"/><path class="cls-11" d="M172.48,301a4.34,4.34,0,0,1-2.4-4.19l1.9-10.79-1.64-.23-1.11,10.9a4.33,4.33,0,0,1-3.45,3.37,35,35,0,0,1-5.41-.35l2.67.38a9.79,9.79,0,0,0,2.68.37,4.8,4.8,0,0,0,3.59-2.23,5,5,0,0,0,2.87,3.14,9.69,9.69,0,0,0,2.68.37l2.68.37a34.56,34.56,0,0,1-5.06-1.11Z"/><path class="cls-11" d="M192.47,255.92c-2-.28-3.91,1.75-4.3,4.56s.89,5.31,2.88,5.59,3.93-1.77,4.32-4.58S194.47,256.2,192.47,255.92Z"/><path class="cls-11" d="M157.27,251c-2-.28-3.94,1.74-4.33,4.55s.9,5.32,2.91,5.6,3.9-1.78,4.3-4.59S159.25,251.27,157.27,251Z"/><path class="cls-11" d="M188.07,330.71c-4.28-.6-26.86,3.43-27.46,7.74s19.84,14.33,24.1,14.92,2.94-6.17,3.54-10.43S192.36,331.31,188.07,330.71Z"/><path class="cls-11" d="M140.42,324.05c4.28.6,24.92,10.67,24.31,15s-23,8.33-27.3,7.73-1.13-6.74-.54-11S136.18,323.46,140.42,324.05Z"/><circle class="cls-12" cx="161.51" cy="339.21" r="8.74"/><path class="cls-13" d="M364.83,112.63a8.69,8.69,0,0,0-3.63-11.73,8.68,8.68,0,1,0-3.63-11.73,8.68,8.68,0,1,0-15.36-8.11A8.68,8.68,0,0,0,326.85,73a8.68,8.68,0,0,0-15.36-8.11,8.69,8.69,0,1,0-11.74,3.63,8.68,8.68,0,0,0-8.1,15.36,8.68,8.68,0,0,0-8.1,15.36,8.68,8.68,0,1,0-8.11,15.36,8.69,8.69,0,0,0-8.1,15.37A8.68,8.68,0,1,0,271,141.66a8.68,8.68,0,1,0,15.36,8.1,8.68,8.68,0,0,0,15.36,8.1A8.68,8.68,0,1,0,317.05,166a8.68,8.68,0,1,0,11.73-3.63A8.68,8.68,0,0,0,336.89,147a8.68,8.68,0,1,0,8.1-15.36,8.68,8.68,0,1,0,8.1-15.36A8.69,8.69,0,0,0,364.83,112.63Z"/><path class="cls-14" d="M364.83,112.63a8.69,8.69,0,0,0-3.63-11.73,8.68,8.68,0,1,0-3.63-11.73,8.68,8.68,0,1,0-15.36-8.11A8.68,8.68,0,0,0,326.85,73a8.68,8.68,0,0,0-15.36-8.11,8.69,8.69,0,1,0-11.74,3.63,8.68,8.68,0,0,0-8.1,15.36,8.68,8.68,0,0,0-8.1,15.36,8.68,8.68,0,1,0-8.11,15.36,8.69,8.69,0,0,0-8.1,15.37A8.68,8.68,0,1,0,271,141.66a8.68,8.68,0,1,0,15.36,8.1,8.68,8.68,0,0,0,15.36,8.1A8.68,8.68,0,1,0,317.05,166a8.68,8.68,0,1,0,11.73-3.63A8.68,8.68,0,0,0,336.89,147a8.68,8.68,0,1,0,8.1-15.36,8.68,8.68,0,1,0,8.1-15.36A8.69,8.69,0,0,0,364.83,112.63Z"/><path class="cls-15" d="M364.83,112.63a8.77,8.77,0,0,0-3.63-11.73,8.69,8.69,0,0,0,11.6-3.39,8.81,8.81,0,0,0-3.43-11.94,8.64,8.64,0,0,0-5.57-.91,8.65,8.65,0,0,1-.2,7.69c-2.24,4.24-6.75.83-9,5.07-1.35,2.57.07,4.24.92,6.1a14.89,14.89,0,0,0-21.63,15.24,14.84,14.84,0,0,0-8.1,15.36,14.84,14.84,0,0,0-8.1,15.36,14.88,14.88,0,0,0-7.33,8.16,1.25,1.25,0,0,1-2.37-.12c-.59-2.18,0-4.73-2.84-6.24-4.24-2.24-6,3.12-10.28.89s-.84-6.76-5.08-9-6,3.12-10.28.88-.84-6.75-5.08-9-6,3.13-10.28.89a8.64,8.64,0,0,1-4.51-6.24,8.65,8.65,0,0,0-4.08,3.9,8.8,8.8,0,0,0,3.91,11.79A8.69,8.69,0,0,0,271,141.66a8.68,8.68,0,1,0,15.36,8.1,8.68,8.68,0,0,0,15.36,8.1A8.68,8.68,0,0,0,317.05,166a8.68,8.68,0,1,0,11.73-3.63A8.68,8.68,0,0,0,336.89,147a8.68,8.68,0,1,0,8.1-15.36,8.68,8.68,0,1,0,8.1-15.36A8.69,8.69,0,0,0,364.83,112.63Z"/><path class="cls-4" d="M309.91,79.8a3.1,3.1,0,1,1-1.29-4.19A3.1,3.1,0,0,1,309.91,79.8Z"/><path class="cls-4" d="M311.86,98.71a3.1,3.1,0,1,1-1.3-4.19A3.1,3.1,0,0,1,311.86,98.71Z"/><path class="cls-4" d="M334.9,110.87a3.1,3.1,0,1,1-1.3-4.19A3.1,3.1,0,0,1,334.9,110.87Z"/><path class="cls-4" d="M351.6,101.8a3.1,3.1,0,1,1-1.29-4.19A3.1,3.1,0,0,1,351.6,101.8Z"/><path class="cls-4" d="M330.76,90.8a3.1,3.1,0,1,1-1.3-4.19A3.11,3.11,0,0,1,330.76,90.8Z"/><path class="cls-4" d="M317,116.86a3.1,3.1,0,1,1-1.29-4.19A3.1,3.1,0,0,1,317,116.86Z"/><path class="cls-4" d="M296.16,105.86a3.1,3.1,0,1,1-1.29-4.19A3.1,3.1,0,0,1,296.16,105.86Z"/><path class="cls-4" d="M282.42,131.92a3.1,3.1,0,1,1-1.3-4.19A3.1,3.1,0,0,1,282.42,131.92Z"/><path class="cls-4" d="M299.12,122.85a3.1,3.1,0,1,1-1.29-4.19A3.11,3.11,0,0,1,299.12,122.85Z"/><path class="cls-4" d="M322.16,135a3.1,3.1,0,1,1-1.29-4.19A3.1,3.1,0,0,1,322.16,135Z"/><path class="cls-4" d="M303.26,142.92a3.1,3.1,0,1,1-1.29-4.19A3.1,3.1,0,0,1,303.26,142.92Z"/><path class="cls-13" d="M409.66,168.54A8.67,8.67,0,0,0,406,156.81a8.68,8.68,0,1,0-3.62-11.73,8.68,8.68,0,0,0-15.36-8.1,8.69,8.69,0,0,0-15.37-8.11,8.68,8.68,0,1,0-15.36-8.1,8.68,8.68,0,1,0-11.73,3.63,8.68,8.68,0,0,0-8.1,15.36,8.68,8.68,0,0,0-8.11,15.36,8.68,8.68,0,1,0-8.1,15.36,8.68,8.68,0,1,0-8.1,15.36,8.68,8.68,0,1,0,3.63,11.73,8.68,8.68,0,1,0,15.36,8.1,8.68,8.68,0,1,0,15.36,8.11,8.68,8.68,0,0,0,15.36,8.1,8.68,8.68,0,1,0,11.73-3.63,8.68,8.68,0,0,0,8.1-15.36,8.68,8.68,0,1,0,8.11-15.36,8.68,8.68,0,0,0,8.1-15.36A8.68,8.68,0,0,0,409.66,168.54Z"/><path class="cls-14" d="M409.66,168.54A8.67,8.67,0,0,0,406,156.81a8.68,8.68,0,1,0-3.62-11.73,8.68,8.68,0,0,0-15.36-8.1,8.69,8.69,0,0,0-15.37-8.11,8.68,8.68,0,1,0-15.36-8.1,8.68,8.68,0,1,0-11.73,3.63,8.68,8.68,0,0,0-8.1,15.36,8.68,8.68,0,0,0-8.11,15.36,8.68,8.68,0,1,0-8.1,15.36,8.68,8.68,0,1,0-8.1,15.36,8.68,8.68,0,1,0,3.63,11.73,8.68,8.68,0,1,0,15.36,8.1,8.68,8.68,0,1,0,15.36,8.11,8.68,8.68,0,0,0,15.36,8.1,8.68,8.68,0,1,0,11.73-3.63,8.68,8.68,0,0,0,8.1-15.36,8.68,8.68,0,1,0,8.11-15.36,8.68,8.68,0,0,0,8.1-15.36A8.68,8.68,0,0,0,409.66,168.54Z"/><path class="cls-15" d="M409.66,168.54A8.67,8.67,0,0,0,406,156.81a8.68,8.68,0,1,0,2.61-16.24,8.65,8.65,0,0,1-.2,7.69c-2.24,4.24-6.75.84-9,5.08s3.12,6,.89,10.28-6.75.84-9,5.08,3.12,6,.88,10.28-6.75.84-9,5.08,3.13,6,.89,10.28-6.75.84-9,5.08,3.12,6,.89,10.28-6.76.84-9,5.08a5.09,5.09,0,0,0-.46,1.19l-1.22-.67c-4.24-2.24-6,3.12-10.28.88s-.84-6.75-5.08-9-6,3.13-10.29.89-.83-6.75-5.07-9-6,3.12-10.29.89-.83-6.75-5.07-9-6,3.12-10.29.88a8.69,8.69,0,0,1-4.51-6.23,8.68,8.68,0,1,0,11.33,11.93,8.68,8.68,0,0,0,15.36,8.11,8.68,8.68,0,1,0,15.36,8.1,8.68,8.68,0,0,0,15.36,8.1,8.68,8.68,0,1,0,11.73-3.63,8.68,8.68,0,0,0,8.1-15.36,8.68,8.68,0,1,0,8.11-15.36,8.68,8.68,0,0,0,8.1-15.36A8.68,8.68,0,0,0,409.66,168.54Z"/><path class="cls-4" d="M354.75,135.72a3.1,3.1,0,1,1-1.3-4.19A3.1,3.1,0,0,1,354.75,135.72Z"/><path class="cls-4" d="M356.7,154.63a3.1,3.1,0,1,1-1.3-4.19A3.1,3.1,0,0,1,356.7,154.63Z"/><path class="cls-4" d="M379.74,166.78a3.1,3.1,0,1,1-1.3-4.19A3.1,3.1,0,0,1,379.74,166.78Z"/><path class="cls-4" d="M396.44,157.71a3.1,3.1,0,1,1-1.29-4.19A3.1,3.1,0,0,1,396.44,157.71Z"/><path class="cls-4" d="M375.6,146.71a3.1,3.1,0,1,1-1.3-4.19A3.1,3.1,0,0,1,375.6,146.71Z"/><path class="cls-4" d="M361.85,172.77a3.1,3.1,0,1,1-1.3-4.19A3.1,3.1,0,0,1,361.85,172.77Z"/><path class="cls-4" d="M382.7,183.77a3.1,3.1,0,1,1-1.3-4.19A3.12,3.12,0,0,1,382.7,183.77Z"/><path class="cls-4" d="M341,161.77a3.1,3.1,0,1,1-1.29-4.19A3.1,3.1,0,0,1,341,161.77Z"/><path class="cls-4" d="M327.26,187.83a3.1,3.1,0,1,1-1.3-4.19A3.11,3.11,0,0,1,327.26,187.83Z"/><path class="cls-4" d="M344,178.76a3.1,3.1,0,1,1-1.3-4.19A3.1,3.1,0,0,1,344,178.76Z"/><path class="cls-4" d="M367,190.92a3.1,3.1,0,1,1-1.29-4.19A3.1,3.1,0,0,1,367,190.92Z"/><path class="cls-4" d="M369,209.83a3.1,3.1,0,1,1-1.3-4.19A3.1,3.1,0,0,1,369,209.83Z"/><path class="cls-4" d="M348.1,198.83a3.1,3.1,0,1,1-1.29-4.19A3.1,3.1,0,0,1,348.1,198.83Z"/><path class="cls-16" d="M391.4,262.56l-91.47-33.08a18.34,18.34,0,0,0-23.48,11L232.9,360.92a18.33,18.33,0,0,0,11,23.48l91.47,33.08a18.34,18.34,0,0,0,23.48-11L402.4,286a18.33,18.33,0,0,0-11-23.48Z"/><path class="cls-17" d="M357.62,359.65a20.61,20.61,0,0,1,8.88-24.58,3.54,3.54,0,0,0,.2-6h0a20.62,20.62,0,0,1-7.26-25.1h0a3.54,3.54,0,0,0-3.34-4.94h0a20.62,20.62,0,0,1-20.6-16v0a3.54,3.54,0,0,0-5.61-2l0,0a20.61,20.61,0,0,1-26.09-.86l0,0a3.55,3.55,0,0,0-5.73,1.66h0a20.62,20.62,0,0,1-21.63,14.65h0a3.55,3.55,0,0,0-3.67,4.71,20.62,20.62,0,0,1-8.89,24.58,3.55,3.55,0,0,0-.19,6h0a20.63,20.63,0,0,1,7.26,25.1h0a3.55,3.55,0,0,0,3.35,4.94h0a20.61,20.61,0,0,1,20.6,16v0a3.54,3.54,0,0,0,5.61,2h0a20.61,20.61,0,0,1,26.09.86h0a3.54,3.54,0,0,0,5.73-1.66h0A20.61,20.61,0,0,1,354,364.36h0a3.55,3.55,0,0,0,3.67-4.71Z"/><circle class="cls-13" cx="315.15" cy="330.4" r="32.41"/><path class="cls-18" d="M294.58,312.51a39.83,39.83,0,0,1,6.21-11.17,32.42,32.42,0,0,0,15.76,61.45A39.88,39.88,0,0,1,294.58,312.51Z"/><path class="cls-19" d="M368.86,291l-20-.14-10.42,16.35-.34,18.94L352.87,338l19.24,2.45,12.06-16.78Z"/><path class="cls-20" d="M449.34,284.17l-7.82-16.67a18.19,18.19,0,0,0-24.18-8.75l-68.47,32.11,8.87,5.77a9.35,9.35,0,0,1,3.69,11,13,13,0,0,0,5.81,12.4,13,13,0,0,1,5.81,12.39l-.94,8,68.48-32.11a18.18,18.18,0,0,0,8.75-24.17Z"/><path class="cls-21" d="M338.44,307.21l-7.17,11.26a11.67,11.67,0,0,0,8.37,17.84L352.87,338Z"/><path class="cls-22" d="M293.92,337.18a2.78,2.78,0,0,1-1.66-3.54l1.16-3.19a2.76,2.76,0,1,1,5.18,1.88l-1.15,3.19A2.77,2.77,0,0,1,293.92,337.18Z"/><path class="cls-22" d="M327.13,349.19a2.76,2.76,0,0,1-1.65-3.53l1.15-3.19a2.76,2.76,0,0,1,5.19,1.87l-1.16,3.19A2.76,2.76,0,0,1,327.13,349.19Z"/><path class="cls-22" d="M309.84,345.08a8.91,8.91,0,0,1-5.29-5.17,2.76,2.76,0,0,1,5.14-2,3.42,3.42,0,0,0,4.85,1.76,2.76,2.76,0,0,1,2.68,4.82,9,9,0,0,1-7.38.59Z"/><path class="cls-6" d="M264.59,296.12c9.79-27.1,27.93-48.42,49.7-61.44l-14.36-5.2a18.34,18.34,0,0,0-23.48,11L232.9,360.92a18.33,18.33,0,0,0,11,23.48l28.93,10.46c-16.72-27.3-20.89-63.77-8.24-98.74Z"/></g></svg>