<svg xmlns="http://www.w3.org/2000/svg" width="512" height="512" viewBox="0 0 512 512"><defs><style>.cls-1{fill:#f7f1c7;}.cls-2{fill:#fffbf5;}.cls-3{fill:#a0aab7;}.cls-4{fill:#daeaec;}.cls-5{fill:#aa391f;}.cls-6{fill:#d33207;}.cls-7{fill:#f93812;}.cls-8{fill:#592c00;}.cls-9{fill:#3f2207;}.cls-10{fill:#d37a18;}.cls-11{fill:#f89b2d;}.cls-12{fill:#fff;}.cls-13{fill:#c6e7f7;}.cls-14{fill:#b5e0f5;}.cls-15{fill:#59acd9;}.cls-16{fill:#73c3ee;}.cls-17{fill:#06ff18;}</style></defs><title>Pet Kit</title><g id="Pet_Kit" data-name="Pet Kit"><circle class="cls-1" cx="256.45" cy="256.19" r="181"/><circle class="cls-2" cx="163.04" cy="230.96" r="10.6"/><path class="cls-3" d="M251.37,168l-29.47-4.83,3.37,9.65,24.65,4a9.53,9.53,0,0,1,1.61,18.39l-45.78,16-1.34,5.22,4.31,3.25,45.77-16A18.49,18.49,0,0,0,251.37,168Z"/><path class="cls-4" d="M175.16,222a15.09,15.09,0,1,0,3,8.46l30.6-10.7-3-8.47Zm-10.1,14.76a6.11,6.11,0,1,1,3.76-7.79,6.13,6.13,0,0,1-3.76,7.79Z"/><path class="cls-3" d="M178.45,114.77l3.81-11.16,8.5,2.9-3.82,11.16Z"/><path class="cls-5" d="M220.64,133.89a69.07,69.07,0,0,0-50.4-24.11l13,46.83,18.65,43.65.34-.11a41.56,41.56,0,0,0,12.42-6.93,42.46,42.46,0,0,0,15.44-28.87,40.81,40.81,0,0,0-9.46-30.46Z"/><path class="cls-6" d="M123.68,126.17a68.21,68.21,0,0,0-21.37,33.47,29.41,29.41,0,0,0,13,33.52,30.19,30.19,0,0,0,17.6,4.64,29.57,29.57,0,0,0,18.24-7.65l3-2.68,8.73,6.52a42.42,42.42,0,0,0,39,6.27l-31.66-90.48a68.07,68.07,0,0,0-46.56,16.39Zm27.57,39.2-11.11,10a12.45,12.45,0,0,1-4.22,2.49,12.7,12.7,0,0,1-12.27-2.15c-4.27-3.52-5.54-9.36-3.32-15.22,2-5.32,7.18-13.5,15.64-20.47l5-4.1,10.32,29.47Z"/><path class="cls-6" d="M205.58,145.57a23,23,0,0,0-25.16-6.71l4.94,23.77,10.26,19.67.12,0a23,23,0,0,0,9.84-36.69Z"/><path class="cls-7" d="M173.13,143.08a23,23,0,0,0,22.49,39.22l-15.2-43.44a23,23,0,0,0-7.29,4.22Z"/><polygon class="cls-8" points="158.28 288.5 155.56 295.14 151.89 300.85 146.37 304.99 139.54 305.22 133.22 303.77 126.97 301.07 122.02 295.76 123.67 288.5 122.89 281.61 127.85 276.82 132.99 272.69 139.54 272.38 146.26 272.27 151.91 276.13 154.42 282.34 158.28 288.5"/><polygon class="cls-8" points="185.11 292.12 182.4 298.75 178.72 304.46 173.2 308.6 166.37 308.83 160.05 307.38 153.81 304.68 148.86 299.37 150.51 292.12 149.73 285.22 154.69 280.43 159.82 276.3 166.37 275.99 173.1 275.88 178.75 279.74 181.25 285.95 185.11 292.12"/><polygon class="cls-9" points="178.92 263.22 176.21 269.85 172.53 275.56 167.01 279.7 160.18 279.93 153.86 278.48 147.61 275.79 142.66 270.47 144.31 263.22 143.54 256.32 148.5 251.53 153.63 247.4 160.18 247.09 166.91 246.99 172.55 250.84 175.06 257.05 178.92 263.22"/><polygon class="cls-8" points="208.33 275.08 205.62 281.72 201.94 287.43 196.43 291.57 189.6 291.8 183.27 290.35 177.03 287.65 172.08 282.34 173.73 275.08 172.95 268.19 177.91 263.4 183.05 259.27 189.6 258.96 196.32 258.85 201.97 262.71 204.48 268.92 208.33 275.08"/><polygon class="cls-8" points="217.11 289.02 214.39 295.66 210.72 301.37 205.2 305.51 198.37 305.74 192.05 304.29 185.8 301.59 180.85 296.27 182.5 289.02 181.72 282.12 186.68 277.33 191.82 273.2 198.37 272.89 205.09 272.79 210.74 276.65 213.25 282.86 217.11 289.02"/><polygon class="cls-9" points="227.43 265.28 224.72 271.92 221.04 277.63 215.52 281.77 208.69 282 202.37 280.55 196.12 277.85 191.17 272.54 192.82 265.28 192.04 258.38 197 253.59 202.14 249.47 208.69 249.15 215.41 249.05 221.06 252.91 223.57 259.12 227.43 265.28"/><polygon class="cls-8" points="205.24 247.74 202.53 254.37 198.85 260.08 193.33 264.22 186.5 264.45 180.18 263 173.93 260.3 168.98 254.99 170.63 247.74 169.85 240.84 174.81 236.05 179.95 231.92 186.5 231.61 193.22 231.5 198.87 235.36 201.38 241.57 205.24 247.74"/><polygon class="cls-8" points="251.68 251.86 248.97 258.5 245.29 264.21 239.77 268.35 232.94 268.58 226.62 267.13 220.38 264.43 215.43 259.12 217.08 251.86 216.3 244.97 221.26 240.18 226.39 236.05 232.94 235.74 239.67 235.63 245.32 239.49 247.82 245.7 251.68 251.86"/><polygon class="cls-8" points="251.68 284.89 248.97 291.53 245.29 297.24 239.77 301.38 232.94 301.61 226.62 300.16 220.38 297.46 215.43 292.15 217.08 284.89 216.3 278 221.26 273.2 226.39 269.08 232.94 268.76 239.67 268.66 245.32 272.52 247.82 278.73 251.68 284.89"/><polygon class="cls-9" points="232.59 284.89 229.88 291.53 226.2 297.24 220.68 301.38 213.85 301.61 207.53 300.16 201.28 297.46 196.33 292.15 197.99 284.89 197.21 278 202.16 273.2 207.3 269.08 213.85 268.76 220.57 268.66 226.22 272.52 228.73 278.73 232.59 284.89"/><polygon class="cls-9" points="222.27 243.61 219.55 250.24 215.88 255.96 210.36 260.09 203.53 260.32 197.21 258.87 190.96 256.18 186.01 250.86 187.66 243.61 186.88 236.71 191.84 231.92 196.98 227.79 203.53 227.48 210.25 227.38 215.9 231.23 218.41 237.44 222.27 243.61"/><polygon class="cls-8" points="259.94 278.18 257.23 284.82 253.55 290.53 248.03 294.67 241.2 294.9 234.88 293.45 228.63 290.75 223.69 285.44 225.34 278.18 224.56 271.29 229.51 266.5 234.65 262.37 241.2 262.06 247.93 261.95 253.57 265.81 256.08 272.02 259.94 278.18"/><polygon class="cls-8" points="242.39 271.47 239.68 278.11 236 283.82 230.49 287.96 223.66 288.19 217.33 286.74 211.09 284.04 206.14 278.73 207.79 271.47 207.01 264.58 211.97 259.79 217.1 255.66 223.66 255.35 230.38 255.24 236.03 259.1 238.54 265.31 242.39 271.47"/><path class="cls-10" d="M291,368.76c0,7.69-7.51,13.92-16.78,13.92H98.78c-9.27,0-16.78-6.23-16.78-13.92l20.9-64.53c3.87-10.31,6-13.92,13.42-13.92H256.68a12,12,0,0,1,3.59.51c5.08,1.57,7.92,6.62,9.83,13.41Z"/><path class="cls-11" d="M291,368.76c0,7.69-7.51,13.92-16.78,13.92H106.12c-7.07-1.63-12.25-7-12.25-13.4l20.9-64.54c3.87-10.3,6-13.92,13.42-13.92H260.27c5.08,1.57,7.92,6.62,9.83,13.41Z"/><path class="cls-12" d="M239.4,345.78a11.62,11.62,0,1,1-23.23,0c0-.25,0-.52,0-.77H166.09c0,.25,0,.52,0,.77a11.62,11.62,0,1,1-18.58-9.28A11.61,11.61,0,1,1,166,325.92h50.21a11.61,11.61,0,1,1,18.5,10.58A11.58,11.58,0,0,1,239.4,345.78Z"/><g id="photo"><rect class="cls-9" x="314" y="206" width="153" height="121" transform="translate(90.91 -99.23) rotate(16.36)"/><polygon class="cls-12" points="469.12 234.78 444.92 317.21 439.49 335.7 418.95 329.67 394.01 322.34 393.17 322.1 376.94 317.33 349.81 309.36 315 299.14 314.02 298.85 311.88 298.22 341.51 197.3 469.12 234.78"/><path class="cls-13" d="M376.94,317.33l-27.13-8L315,299.14a9.08,9.08,0,0,1,2.32-8.36l34.81-36.51A9.19,9.19,0,0,1,367.6,258l6.33,21.55,7.88,26.85A9.2,9.2,0,0,1,376.94,317.33Z"/><path class="cls-13" d="M444.92,317.21l-5.43,18.49-62.55-18.37-27.13-8a9,9,0,0,1,2.5-7.12l21.62-22.66L408.77,243a9.19,9.19,0,0,1,15.47,3.76Z"/><path class="cls-9" d="M376.79,233a23.82,23.82,0,1,0,16.15,29.57A23.82,23.82,0,0,0,376.79,233ZM394,322.34l.38-1.31.25-.84a25,25,0,0,0-16.95-31.05l-3-.87a32.43,32.43,0,0,1-26-7.65l-3-.87a25,25,0,0,0-31.05,16.95l-.63,2.15,1,.29,34.81,10.22,27.13,8,16.23,4.77Z"/><path class="cls-9" d="M394.54,300.76a3.06,3.06,0,0,0,1.42-.22c1.71-.46,3.38-1.9,4.89-4a35.88,35.88,0,0,0,5-11.72c1.15-4.52,4.25-8.32,7.78-11.27,1.14-1,3.25-1.87,1.61-2.36-3.93-1.15-26.15,3.1-22.51,14.68C396.24,296.93,393.45,300.44,394.54,300.76Z"/><path class="cls-9" d="M431.21,278.69c1.38,4.4,1.93,9.27.45,13.7A36.13,36.13,0,0,0,429.57,305c.14,2.59.76,4.71,1.95,6,.51.57.83.88,1.07.95,1.08.32.64-4.15,9.55-11.58,9.31-7.77-7.08-23.36-11-24.51C429.49,275.36,430.77,277.27,431.21,278.69Z"/><path class="cls-9" d="M430.48,286.64A22,22,0,0,0,430,282a25.43,25.43,0,0,0-1.55-4.77,2.93,2.93,0,0,1,0-2,16.56,16.56,0,0,0-5-2.4,16.15,16.15,0,0,0-5.51-.68,2.93,2.93,0,0,1-1.08,1.63,25.76,25.76,0,0,0-3.89,3.19,22,22,0,0,0-2.92,3.6,16.32,16.32,0,0,0-2.09,4.71,40.17,40.17,0,0,1-4.44,11,19.93,19.93,0,0,1-2.25,3.05c.12.73.26,1.47.41,2.2,1.73,8.31,1,9.14.43,11s3,4,7.87,2l.95-3.25c-1.29-1.06-2.6-3.22-2.17-4.68.54-1.86,2.58-1.56,5-.85h.07c2.42.71,4.3,1.57,3.75,3.43-.43,1.46-2.7,2.56-4.36,2.76l-1,3.25c3.07,4.33,7.2,4.26,7.69,2.59s.33-2.92,6.28-9c.53-.53,1-1.08,1.53-1.63a20.43,20.43,0,0,1-.24-3.78,40.67,40.67,0,0,1,2.22-11.66A16.07,16.07,0,0,0,430.48,286.64Zm-15.91,3a2.8,2.8,0,1,1-1.89-3.47A2.8,2.8,0,0,1,414.57,289.66Zm12.54,3.68a2.8,2.8,0,1,1-5.37-1.58,2.8,2.8,0,0,1,5.37,1.58Z"/><path class="cls-9" d="M394,322.34,419,329.67l-1.14-8.52A22.61,22.61,0,0,1,401.29,315l-6.9,6-1.22,1.07Z"/></g><g id="bottle"><rect class="cls-14" x="245.64" y="50.47" width="21.15" height="14.33" transform="translate(3.54 129.22) rotate(-28.5)"/><rect class="cls-13" x="245.88" y="51.44" width="17.06" height="14.33" transform="translate(2.86 128.48) rotate(-28.5)"/><path class="cls-14" d="M299.73,85.61l0,0a10.67,10.67,0,0,1,14.08,4.49l6.41,11.82a10.65,10.65,0,0,1-3.91,14.25h0l2.72-1.48a7.13,7.13,0,0,1,9.68,2.87l.68,1.25a7.13,7.13,0,0,1-2.87,9.67,7.15,7.15,0,0,1,9.68,2.87l10.55,19.45a23.26,23.26,0,0,1-9.35,31.55L316.58,193.7A23.27,23.27,0,0,1,285,184.35l-10.55-19.44a7.14,7.14,0,0,1,2.86-9.68,7.13,7.13,0,0,1-9.67-2.87l-.68-1.24a7.13,7.13,0,0,1,2.87-9.68l3.1-1.69a10.65,10.65,0,0,1-14.46-4.28l-6.42-11.83a10.66,10.66,0,0,1,4.28-14.47,10.65,10.65,0,0,1-14.46-4.28l-4-7.35A23.27,23.27,0,0,1,247.25,66L268.1,54.67A23.29,23.29,0,0,1,299.66,64l4,7.34A10.65,10.65,0,0,1,299.73,85.61Z"/><path class="cls-13" d="M290.66,68.9l5.68,10.45a7.13,7.13,0,0,1-1,8.2A7.25,7.25,0,0,1,293.47,89l-3.11,1.68A10.67,10.67,0,0,1,304.83,95l6.42,11.82A10.67,10.67,0,0,1,307,121.29l3.11-1.68a7.07,7.07,0,0,1,2.26-.78,7.15,7.15,0,0,1,7.42,3.64l.67,1.25a7.13,7.13,0,0,1-1,8.2,7.42,7.42,0,0,1-1.88,1.48,7.11,7.11,0,0,1,9.67,2.86l10.56,19.45a23.27,23.27,0,0,1-9.35,31.55l-11.86,6.44A23.27,23.27,0,0,1,285,184.35l-10.55-19.44a7.14,7.14,0,0,1,2.86-9.68,7.13,7.13,0,0,1-9.67-2.87l-.68-1.24a7.13,7.13,0,0,1,2.87-9.68l3.1-1.69a10.65,10.65,0,0,1-14.46-4.28l-6.42-11.83a10.66,10.66,0,0,1,4.28-14.47,10.65,10.65,0,0,1-14.46-4.28l-4-7.35A23.27,23.27,0,0,1,247.25,66l11.86-6.44A23.19,23.19,0,0,1,277.73,58a19.9,19.9,0,0,1,2.31.93A23.12,23.12,0,0,1,290.66,68.9Z"/><rect class="cls-15" x="251.02" y="95.39" width="70.27" height="34.79" rx="10.67" transform="translate(-19.15 150.18) rotate(-28.5)"/><rect class="cls-16" x="251.64" y="97.84" width="60.04" height="34.79" rx="10.67" transform="translate(-20.85 148.34) rotate(-28.5)"/><path class="cls-15" d="M264,39.85l3.23,6a1.37,1.37,0,0,1-.55,1.85L242.13,61a1.37,1.37,0,0,1-1.85-.54l-3.23-6a6.19,6.19,0,0,1,2.48-8.39l16.11-8.74A6.19,6.19,0,0,1,264,39.85Z"/><path class="cls-16" d="M256.83,43.76l3.23,6a1.36,1.36,0,0,1-.54,1.85L242.13,61a1.37,1.37,0,0,1-1.85-.54l-3.23-6a6.19,6.19,0,0,1,2.48-8.39l8.91-4.84A6.19,6.19,0,0,1,256.83,43.76Z"/></g><circle class="cls-17" cx="300.5" cy="240.5" r="31.5"/><path class="cls-12" d="M282.66,214.52a33.43,33.43,0,0,0-4.65,3.91,28.46,28.46,0,0,1,0,44.14,33.43,33.43,0,0,0,4.65,3.91,34.42,34.42,0,0,0,0-52Z"/><path class="cls-12" d="M314.5,240.5a28.4,28.4,0,0,1,9.39-21.11,33,33,0,0,0-4.44-4.07,34.43,34.43,0,0,0,0,50.36,33,33,0,0,0,4.44-4.07A28.4,28.4,0,0,1,314.5,240.5Z"/></g></svg>