<svg id="Vehicle_Kit" data-name="Vehicle Kit" xmlns="http://www.w3.org/2000/svg" xmlns:xlink="http://www.w3.org/1999/xlink" width="512" height="512" viewBox="0 0 512 512"><defs><style>.cls-1{fill:#f7f1c7;}.cls-2{fill:#d37a18;}.cls-3{fill:#d33207;}.cls-4{fill:#f89b2d;}.cls-5{fill:#0378a3;}.cls-6{fill:#29485a;}.cls-7{fill:#b5e0f5;}.cls-8{fill:#c6e7f7;}.cls-9{fill:#59acd9;}.cls-10{fill:#73c3ee;}.cls-11{fill:#fff;}.cls-12{fill:url(#linear-gradient);}.cls-13{fill:#070707;}.cls-14{fill:#dd1924;}.cls-15{fill:#bb1819;}.cls-16{fill:#808a93;}.cls-17{fill:#99101d;}.cls-18{fill:#9199a4;}</style><linearGradient id="linear-gradient" x1="190.51" y1="356.43" x2="190.51" y2="348.58" gradientUnits="userSpaceOnUse"><stop offset="0" stop-color="#231f20"/><stop offset="0.54" stop-color="#b3b5b8"/><stop offset="1" stop-color="#231f20"/></linearGradient></defs><title>Vehicle Kit</title><circle class="cls-1" cx="258.57" cy="261" r="181"/><g id="jumper"><path class="cls-2" d="M108.48,219.64l10-4.58,2.69,4.95,20.42-9.37L100,145.43A5.63,5.63,0,0,0,93,143.34l-10.87,5,4,7.41.61.12a6.81,6.81,0,0,1,5.4,8,7.14,7.14,0,0,1-.61,1.79l4,7.41,1.15.34a6.81,6.81,0,0,1,4.64,8.44c-.06.18-.11.35-.18.52l-.23.59,8.5,11.55-10.34,4.74"/><path class="cls-3" d="M225.07,265a2.8,2.8,0,0,1-3.72-1.38L161,132.19a9.83,9.83,0,0,0-17.86,8.2L198.8,261.63a14,14,0,0,1-25.53,11.71,2.81,2.81,0,0,1,5.11-2.35,8.42,8.42,0,1,0,15.31-7L138.07,142.73a15.45,15.45,0,1,1,28.08-12.88l60.3,131.45A2.8,2.8,0,0,1,225.07,265Z"/><path class="cls-4" d="M73.69,152.19l3,7.89-.31.54a6.8,6.8,0,0,0,4.28,10l3,7.9-.5,1.09a6.81,6.81,0,0,0,3.37,9,4.71,4.71,0,0,0,.52.21l.59.21,4,13.63,7.66-3.51a11.23,11.23,0,1,1,9.36,20.41l-8,3.7,2,5.27-20.42,9.36-22.34-74a5.62,5.62,0,0,1,3-6.73Z"/><path class="cls-5" d="M75.08,241.14l33.19-15.22L113,236.13,79.77,251.35Z"/><path class="cls-6" d="M85,249,96.08,293.3a11.29,11.29,0,0,0,7.47,7.63A12.29,12.29,0,0,0,118,296.34l.54-.78a12.32,12.32,0,0,0,1.67-10.38L108,238.41Z"/><path class="cls-5" d="M118.47,221.23,151.66,206l4.68,10.21-33.18,15.22Z"/><path class="cls-6" d="M151.36,218.51l26.39,37.32a11.31,11.31,0,0,1,.92,10.64,12.3,12.3,0,0,1-12.9,7.95l-1-.1a12.28,12.28,0,0,1-8.95-5.5L128.39,229Z"/><path d="M106.13,214.54a5.62,5.62,0,1,1,2.77-7.45A5.62,5.62,0,0,1,106.13,214.54Z"/></g><g id="bottle"><rect class="cls-7" x="437.22" y="195.77" width="16.05" height="23.7" transform="translate(86.47 543.22) rotate(-68.09)"/><rect class="cls-8" x="435.09" y="197.2" width="16.05" height="19.11" transform="translate(85.93 540.71) rotate(-68.09)"/><path class="cls-7" d="M452.17,265.18v0a12,12,0,0,1,6.18,15.36l-5.63,14a11.93,11.93,0,0,1-15.09,6.8v0l3.22,1.29a8,8,0,0,1,4.44,10.4l-.6,1.48a8,8,0,0,1-10.4,4.43,8,8,0,0,1,4.43,10.41l-9.25,23a26.08,26.08,0,0,1-33.92,14.46l-24.67-9.92A26.08,26.08,0,0,1,356.4,323l9.25-23a8,8,0,0,1,10.4-4.43,8,8,0,0,1-4.43-10.41l.59-1.47a8,8,0,0,1,10.41-4.44l3.67,1.48a11.94,11.94,0,0,1-6.63-15.55l5.63-14a12,12,0,0,1,15.55-6.63A11.94,11.94,0,0,1,394.21,229l3.49-8.69a26.08,26.08,0,0,1,33.93-14.46l24.67,9.92a26.07,26.07,0,0,1,14.46,33.92l-3.5,8.69A11.93,11.93,0,0,1,452.17,265.18Z"/><path class="cls-8" d="M460.12,245.41l-5,12.37a8,8,0,0,1-7.79,5,8.19,8.19,0,0,1-2.62-.58l-3.67-1.48a12,12,0,0,1,6.63,15.56l-5.63,14a11.94,11.94,0,0,1-15.55,6.63l3.67,1.48a8.28,8.28,0,0,1,2.29,1.4,8,8,0,0,1,2.15,9l-.6,1.47a8,8,0,0,1-7.78,5,8.19,8.19,0,0,1-2.62-.58,8.28,8.28,0,0,1,2.29,1.4,8,8,0,0,1,2.15,9l-9.26,23a26.08,26.08,0,0,1-33.92,14.46l-14-5.64A26.08,26.08,0,0,1,356.4,323l9.25-23a8,8,0,0,1,10.4-4.43,8,8,0,0,1-4.43-10.41l.59-1.47a8,8,0,0,1,10.41-4.44l3.67,1.48a11.94,11.94,0,0,1-6.63-15.55l5.63-14a12,12,0,0,1,15.55-6.63A11.94,11.94,0,0,1,394.21,229l3.49-8.69a26.08,26.08,0,0,1,33.93-14.46l14,5.64a26,26,0,0,1,14.65,15,24,24,0,0,1,.85,2.65A25.93,25.93,0,0,1,460.12,245.41Z"/><rect class="cls-9" x="399.5" y="233.5" width="38.99" height="78.74" rx="11.96" transform="translate(9.48 559.77) rotate(-68.09)"/><rect class="cls-10" x="394.18" y="237.09" width="38.99" height="67.27" rx="11.96" transform="translate(8.13 553.49) rotate(-68.09)"/><path class="cls-9" d="M466.18,201.67l-2.84,7.05a1.52,1.52,0,0,1-2,.84l-29.07-11.69a1.52,1.52,0,0,1-.85-2l2.83-7a6.93,6.93,0,0,1,9-3.84l19.05,7.66A6.94,6.94,0,0,1,466.18,201.67Z"/><path class="cls-10" d="M457.67,198.25l-2.84,7a1.54,1.54,0,0,1-2,.85l-20.56-8.27a1.52,1.52,0,0,1-.85-2l2.83-7a6.93,6.93,0,0,1,9-3.84l10.54,4.24A7,7,0,0,1,457.67,198.25Z"/></g><rect class="cls-3" x="213.57" y="157.01" width="161.1" height="99.24" rx="10.88" transform="translate(70.13 -74.5) rotate(16.36)"/><polygon class="cls-11" points="320.78 205.05 315.7 222.36 300.24 217.82 295.7 233.28 278.39 228.2 282.93 212.74 267.47 208.2 272.55 190.89 288.01 195.43 292.55 179.97 309.86 185.05 305.32 200.51 320.78 205.05"/><g id="carjack"><polygon class="cls-12" points="77.98 348.58 80.23 349.58 82.45 348.58 84.68 349.58 86.91 348.58 89.13 349.58 91.36 348.58 93.59 349.58 95.81 348.58 98.04 349.58 100.26 348.58 102.49 349.58 104.72 348.58 106.95 349.58 109.17 348.58 111.4 349.58 113.63 348.58 115.85 349.58 118.08 348.58 120.3 349.58 122.52 348.58 124.74 349.58 126.96 348.58 129.18 349.58 131.41 348.58 133.63 349.58 135.85 348.58 138.07 349.58 140.3 348.58 142.52 349.58 144.75 348.58 146.98 349.58 149.21 348.58 151.43 349.58 153.66 348.58 155.88 349.58 158.11 348.58 160.33 349.58 162.56 348.58 164.78 349.58 167 348.58 169.23 349.58 171.46 348.58 173.68 349.58 175.91 348.58 178.14 349.58 180.37 348.58 182.6 349.58 184.82 348.58 187.05 349.58 189.27 348.58 191.5 349.58 193.73 348.58 195.95 349.58 198.18 348.58 200.41 349.58 202.64 348.58 204.87 349.58 207.09 348.58 209.32 349.58 211.55 348.58 213.78 349.58 216.01 348.58 218.24 349.58 220.47 348.58 222.69 349.58 224.92 348.58 227.15 349.58 229.38 348.58 231.61 349.58 233.84 348.58 236.07 349.58 238.3 348.58 240.53 349.58 242.76 348.58 244.99 349.58 247.22 348.58 249.45 349.58 251.68 348.58 253.91 349.58 256.14 348.58 258.36 349.58 260.59 348.58 262.82 349.58 265.05 348.58 267.28 349.58 269.51 348.58 271.74 349.58 273.97 348.58 276.2 349.58 278.44 348.58 280.67 349.58 282.9 348.58 285.13 349.58 287.37 348.58 289.6 349.58 291.83 348.58 294.06 349.58 296.3 348.58 298.53 349.58 300.77 348.58 303 349.58 303.51 349.14 302.51 349.21 303.51 349.27 302.51 349.34 303.51 349.41 302.51 349.47 303.51 349.54 302.51 349.61 303.51 349.68 302.51 349.74 303.51 349.81 302.51 349.88 303.51 349.94 302.51 350.01 303.51 350.08 302.51 350.15 303.51 350.22 302.51 350.28 303.51 350.35 302.51 350.42 303.51 350.49 302.51 350.55 303.51 350.62 302.51 350.69 303.51 350.75 302.51 350.82 303.51 350.88 302.51 350.95 303.51 351.02 302.51 351.08 303.51 351.15 302.51 351.22 303.51 351.28 302.51 351.35 303.51 351.42 302.51 351.48 303.51 351.55 302.51 351.61 303.51 351.68 302.51 351.75 303.51 351.81 302.51 351.88 303.51 351.94 302.51 352.01 303.51 352.08 302.51 352.14 303.51 352.21 302.51 352.28 303.51 352.34 302.51 352.41 303.51 352.48 302.51 352.54 303.51 352.61 302.51 352.68 303.51 352.75 302.51 352.81 303.51 352.88 302.51 352.94 303.51 353.01 302.51 353.07 303.51 353.13 302.51 353.2 303.51 353.26 302.51 353.32 303.51 353.39 302.51 353.45 303.51 353.52 302.51 353.58 303.51 353.65 302.51 353.72 303.51 353.78 302.51 353.85 303.51 353.92 302.51 353.99 303.51 354.06 302.51 354.13 303.51 354.2 302.51 354.27 303.51 354.34 302.51 354.41 303.51 354.48 302.51 354.56 303.51 354.63 302.51 354.7 303.51 354.77 302.51 354.84 303.51 354.91 302.51 354.98 303.51 355.05 302.51 355.11 303.51 355.18 302.51 355.25 303.51 355.32 302.51 355.39 303.51 355.47 302.51 355.55 303.51 355.62 302.51 355.69 303.51 355.77 302.51 355.85 303.03 356.43 300.78 355.43 298.56 356.43 296.33 355.43 294.1 356.43 291.88 355.43 289.65 356.43 287.43 355.43 285.2 356.43 282.97 355.43 280.75 356.43 278.52 355.43 276.29 356.43 274.06 355.43 271.84 356.43 269.61 355.43 267.38 356.43 265.16 355.43 262.94 356.43 260.71 355.43 258.49 356.43 256.27 355.43 254.05 356.43 251.83 355.43 249.6 356.43 247.38 355.43 245.16 356.43 242.94 355.43 240.71 356.43 238.49 355.43 236.26 356.43 234.03 355.43 231.8 356.43 229.58 355.43 227.35 356.43 225.13 355.43 222.9 356.43 220.68 355.43 218.45 356.43 216.23 355.43 214.01 356.43 211.78 355.43 209.55 356.43 207.33 355.43 205.1 356.43 202.87 355.43 200.64 356.43 198.41 355.43 196.19 356.43 193.96 355.43 191.74 356.43 189.51 355.43 187.28 356.43 185.06 355.43 182.83 356.43 180.6 355.43 178.37 356.43 176.14 355.43 173.92 356.43 171.69 355.43 169.46 356.43 167.23 355.43 165 356.43 162.77 355.43 160.54 356.43 158.32 355.43 156.09 356.43 153.86 355.43 151.63 356.43 149.4 355.43 147.17 356.43 144.94 355.43 142.71 356.43 140.48 355.43 138.25 356.43 136.02 355.43 133.79 356.43 131.56 355.43 129.33 356.43 127.1 355.43 124.87 356.43 122.65 355.43 120.42 356.43 118.19 355.43 115.96 356.43 113.73 355.43 111.5 356.43 109.27 355.43 107.04 356.43 104.81 355.43 102.58 356.43 100.34 355.43 98.11 356.43 95.88 355.43 93.64 356.43 91.42 355.43 89.18 356.43 86.95 355.43 84.71 356.43 82.48 355.43 80.24 356.43 78.02 355.43 77.5 355.87 78.5 355.8 77.5 355.73 78.5 355.67 77.5 355.6 78.5 355.54 77.5 355.47 78.5 355.4 77.5 355.33 78.5 355.27 77.5 355.2 78.5 355.13 77.5 355.06 78.5 355 77.5 354.93 78.5 354.86 77.5 354.79 78.5 354.73 77.5 354.66 78.5 354.59 77.5 354.52 78.5 354.46 77.5 354.39 78.5 354.32 77.5 354.26 78.5 354.19 77.5 354.13 78.5 354.06 77.5 353.99 78.5 353.93 77.5 353.86 78.5 353.79 77.5 353.73 78.5 353.66 77.5 353.6 78.5 353.53 77.5 353.46 78.5 353.4 77.5 353.33 78.5 353.26 77.5 353.2 78.5 353.13 77.5 353.06 78.5 353 77.5 352.93 78.5 352.87 77.5 352.8 78.5 352.73 77.5 352.67 78.5 352.6 77.5 352.53 78.5 352.46 77.5 352.4 78.5 352.33 77.5 352.26 78.5 352.19 77.5 352.13 78.5 352.06 77.5 352 78.5 351.94 77.5 351.88 78.5 351.81 77.5 351.75 78.5 351.69 77.5 351.62 78.5 351.56 77.5 351.49 78.5 351.43 77.5 351.36 78.5 351.29 77.5 351.23 78.5 351.16 77.5 351.09 78.5 351.02 77.5 350.95 78.5 350.88 77.5 350.81 78.5 350.74 77.5 350.67 78.5 350.6 77.5 350.53 78.5 350.45 77.5 350.38 78.5 350.31 77.5 350.24 78.5 350.17 77.5 350.1 78.5 350.03 77.5 349.96 78.5 349.9 77.5 349.83 78.5 349.76 77.5 349.69 78.5 349.62 77.5 349.54 78.5 349.46 77.5 349.39 78.5 349.31 77.5 349.24 78.5 349.14 77.98 348.58"/><path class="cls-13" d="M315.32,339.14h-8L301.61,347V358l5.67,7.83h8L321,358V347Zm-4,17.93a4.57,4.57,0,1,1,4.57-4.57A4.58,4.58,0,0,1,311.3,357.07Z"/><rect class="cls-14" x="112.61" y="318.88" width="97.21" height="20.56" rx="9" transform="translate(-163.28 158.77) rotate(-36.2)"/><rect class="cls-14" x="208.4" y="318.29" width="99.21" height="20.56" rx="9" transform="translate(272.14 746.09) rotate(-143.8)"/><rect class="cls-15" x="107.7" y="367.52" width="111.93" height="25.13" rx="11" transform="translate(276.16 -18.15) rotate(39.07)"/><circle class="cls-16" cx="129.97" cy="352.1" r="8.57"/><rect class="cls-15" x="199.07" y="367.52" width="111.93" height="25.13" rx="11" transform="translate(692.6 514.43) rotate(140.93)"/><circle class="cls-16" cx="289.88" cy="352.1" r="8.57"/><path class="cls-17" d="M260.75,420.31v0a5.47,5.47,0,0,1-.3,1.58l0,.07a5.68,5.68,0,0,1-5.37,3.78H162.52a5.6,5.6,0,0,1-3.42-1.14,5.73,5.73,0,0,1-1.95-2.64l0-.07a5.82,5.82,0,0,1-.3-1.58v0a2.86,2.86,0,0,1,5.7.32,2.8,2.8,0,0,1-.23,1.12c2.72-5.24,11.48-17.34,14.25-21.1H241c2.76,3.76,11.52,15.86,14.24,21.1a2.8,2.8,0,0,1-.23-1.12,2.86,2.86,0,0,1,5.7-.32Z"/><circle class="cls-13" cx="220.77" cy="408.64" r="4.57"/><circle class="cls-18" cx="220.77" cy="408.64" r="1.14"/><circle class="cls-13" cx="199.07" cy="408.64" r="4.57"/><circle class="cls-18" cx="199.07" cy="408.64" r="1.14"/><polygon class="cls-17" points="233.34 283 233.34 306.99 226.53 312.7 191.81 312.7 184.22 306.33 184.22 283 233.34 283"/><rect class="cls-15" x="184.22" y="283" width="49.11" height="5.71"/><circle class="cls-13" cx="192.22" cy="304.7" r="4.57"/><circle class="cls-18" cx="192.22" cy="304.7" r="1.14"/><circle class="cls-13" cx="225.34" cy="304.7" r="4.57"/><circle class="cls-18" cx="225.34" cy="304.7" r="1.14"/></g></svg>