<svg id="Icon" xmlns="http://www.w3.org/2000/svg" width="512" height="512" viewBox="0 0 512 512"><defs><style>.cls-1{fill:#f7f1c7;}.cls-2{fill:none;stroke:#231f20;stroke-width:16px;}.cls-3{fill:#392922;}.cls-4{fill:#f89b2d;}.cls-5{fill:#d75727;}</style></defs><title>2 Weeks Ready Icon</title><rect class="cls-1" x="0.64" y="0.27" width="512" height="512"/><g id="backpack"><path class="cls-2" d="M261.89,162.55c-30.88,0-56-21.54-56-48s25.12-48,56-48,56,21.53,56,48S292.77,162.55,261.89,162.55Zm0-85c-24.82,0-45,16.59-45,37s20.18,37,45,37,45-16.6,45-37S286.7,77.55,261.89,77.55Z"/><path class="cls-2" d="M437.36,389.53l-25.57,2.24L340.71,398A14.49,14.49,0,0,1,325,384.81l1.83-123.69c-.7-8,3.91-14.89,10.29-15.45l55.19-4.83,22.12-1.94c6.38-.55,12.12,5.46,12.82,13.43l23.27,121.5A14.48,14.48,0,0,1,437.36,389.53Z"/><path class="cls-2" d="M200.81,384.81A14.49,14.49,0,0,1,185.11,398L90.8,389.73l-2.34-.2a14.48,14.48,0,0,1-13.17-15.7l23.28-121.5c.69-8,6.43-14,12.81-13.43l77.32,6.77a9.93,9.93,0,0,1,5.86,2.66c3.07,2.83,4.88,7.58,4.42,12.79Z"/><path class="cls-2" d="M395.41,405.45a30.6,30.6,0,0,1-30.59,30.6H160a30.6,30.6,0,0,1-30.6-30.6l1.25-12.23,15.49-151.28,6.76-66,.8-7.83,2.3-22.47c0-16.9,11-30.6,24.48-30.6H344.34c13.51,0,24.47,13.7,24.47,30.6l2.48,24.28.79,7.69,6.6,64.41,15.49,151.28Z"/><path class="cls-2" d="M344.34,116.05c12.94,0,23.47,13.27,23.47,29.6v.1L370.29,170l.79,7.69,6.6,64.41,15.49,151.28,1.24,12.09a29.64,29.64,0,0,1-29.59,29.55H160a29.64,29.64,0,0,1-29.6-29.55l1.24-12.18L147.14,242l6.76-66,.8-7.83,2.3-22.47v-.1c0-16.33,10.53-29.6,23.48-29.6H344.34m0-1H180.49c-13.52,0-24.48,13.7-24.48,30.6l-2.3,22.47-.8,7.83-6.76,66L130.66,393.22l-1.25,12.23a30.6,30.6,0,0,0,30.6,30.6H364.82a30.6,30.6,0,0,0,30.59-30.6l-1.24-12.14L378.68,242l-6.6-64.41-.79-7.69-2.48-24.28c0-16.9-11-30.6-24.47-30.6Z"/><path class="cls-2" d="M376.13,126.4c0,.26,0,1.12-.12,2.37-.31,5.24-1.23,17.47-2.26,22.25-.31,1.46-.67,2.91-1.06,4.35-11.76,43.59-56.78,76.08-110.56,76.18h-.5c-32.4-.06-61.63-11.88-82.31-30.81-.78-.71-1.54-1.43-2.29-2.16-13.57-13.16-23.13-29.49-27-47.56-1.28-5.92-2.38-23.26-2.38-24.62a16.78,16.78,0,0,1,.43-3.78,16.31,16.31,0,0,1,4.23-7.78,15.59,15.59,0,0,1,11.23-4.79H360.24a15.59,15.59,0,0,1,11.23,4.79,16.31,16.31,0,0,1,4.23,7.78A16.78,16.78,0,0,1,376.13,126.4Z"/><polygon class="cls-2" points="337.69 110.05 337.69 224.05 327.69 239.05 317.69 224.05 317.69 110.05 337.69 110.05"/><polygon class="cls-2" points="205.69 110.05 205.69 224.05 195.69 239.05 185.69 224.05 185.69 110.05 205.69 110.05"/><rect class="cls-2" x="179.92" y="289.05" width="166" height="99" rx="15.65"/><path class="cls-2" d="M330.27,290.05a14.67,14.67,0,0,1,14.65,14.64V372.4a14.68,14.68,0,0,1-14.65,14.65H195.57a14.67,14.67,0,0,1-14.65-14.65V304.69a14.66,14.66,0,0,1,14.65-14.64h134.7m0-1H195.57a15.64,15.64,0,0,0-15.65,15.64V372.4a15.65,15.65,0,0,0,15.65,15.65h134.7a15.65,15.65,0,0,0,15.65-15.65V304.69a15.65,15.65,0,0,0-15.65-15.64Z"/><path class="cls-2" d="M364.41,287.51v35.08A18.45,18.45,0,0,1,346,341.05H179.87a18.45,18.45,0,0,1-18.46-18.46V287.51a18.45,18.45,0,0,1,18.46-18.46H346a18.47,18.47,0,0,1,18.46,18.46Z"/></g><g id="backpack-2" data-name="backpack"><path class="cls-3" d="M261.89,162.55c-30.88,0-56-21.54-56-48s25.12-48,56-48,56,21.53,56,48S292.77,162.55,261.89,162.55Zm0-85c-24.82,0-45,16.59-45,37s20.18,37,45,37,45-16.6,45-37S286.7,77.55,261.89,77.55Z"/><path class="cls-3" d="M437.36,389.53l-25.57,2.24L340.71,398A14.49,14.49,0,0,1,325,384.81l1.83-123.69c-.7-8,3.91-14.89,10.29-15.45l55.19-4.83,22.12-1.94c6.38-.55,12.12,5.46,12.82,13.43l23.27,121.5A14.48,14.48,0,0,1,437.36,389.53Z"/><path class="cls-3" d="M200.81,384.81A14.49,14.49,0,0,1,185.11,398L90.8,389.73l-2.34-.2a14.48,14.48,0,0,1-13.17-15.7l23.28-121.5c.69-8,6.43-14,12.81-13.43l77.32,6.77a9.93,9.93,0,0,1,5.86,2.66c3.07,2.83,4.88,7.58,4.42,12.79Z"/><path class="cls-4" d="M395.41,405.45a30.6,30.6,0,0,1-30.59,30.6H160a30.6,30.6,0,0,1-30.6-30.6l1.25-12.23,15.49-151.28,6.76-66,.8-7.83,2.3-22.47c0-16.9,11-30.6,24.48-30.6H344.34c13.51,0,24.47,13.7,24.47,30.6l2.48,24.28.79,7.69,6.6,64.41,15.49,151.28Z"/><path class="cls-3" d="M376.13,126.4c0,.26,0,1.12-.12,2.37-.31,5.24-1.23,17.47-2.26,22.25-.31,1.46-.67,2.91-1.06,4.35-11.76,43.59-56.78,76.08-110.56,76.18h-.5c-32.4-.06-61.63-11.88-82.31-30.81-.78-.71-1.54-1.43-2.29-2.16-13.57-13.16-23.13-29.49-27-47.56-1.28-5.92-2.38-23.26-2.38-24.62a16.78,16.78,0,0,1,.43-3.78,16.31,16.31,0,0,1,4.23-7.78,15.59,15.59,0,0,1,11.23-4.79H360.24a15.59,15.59,0,0,1,11.23,4.79,16.31,16.31,0,0,1,4.23,7.78A16.78,16.78,0,0,1,376.13,126.4Z"/><polygon class="cls-5" points="337.69 110.05 337.69 224.05 327.69 239.05 317.69 224.05 317.69 110.05 337.69 110.05"/><polygon class="cls-5" points="205.69 110.05 205.69 224.05 195.69 239.05 185.69 224.05 185.69 110.05 205.69 110.05"/><rect class="cls-5" x="179.92" y="289.05" width="166" height="99" rx="15.65"/><path class="cls-3" d="M364.41,287.51v35.08A18.45,18.45,0,0,1,346,341.05H179.87a18.45,18.45,0,0,1-18.46-18.46V287.51a18.45,18.45,0,0,1,18.46-18.46H346a18.47,18.47,0,0,1,18.46,18.46Z"/></g></svg>